<?xml version="1.0" encoding="utf-8" ?>
<svg baseProfile="full" height="200mm" version="1.1" viewBox="0,0,200,200" width="200mm" xmlns="http://www.w3.org/2000/svg" xmlns:ev="http://www.w3.org/2001/xml-events" xmlns:xlink="http://www.w3.org/1999/xlink"><defs /><rect fill="#1a1a1a" height="200" width="200" x="0" y="0" /><text alignment-baseline="middle" fill="#e1ed5e" style="dominant-baseline: central; font-size:9.0px; font-family:Arial;" text-anchor="middle" x="100.0" y="100.0">2019</text><line stroke="#e1ed5e" stroke-width="0.3" x1="100.0" x2="100.0" y1="15.0" y2="10.0" /><path d="M 100.0 14.0 a86.0,86.0 0 0,1 42.46469731375804,11.215312516191453" fill="none" id="id1" stroke="none" /><text fill="#e1ed5e" style="font-size:6.75px; font-family:Arial;" text-anchor="middle"><textPath startOffset="22.20632615414155" xlink:href="#id1">January</textPath></text><line stroke="#e1ed5e" stroke-width="0.3" x1="143.23703022742887" x2="145.7803849466894" y1="26.81831364943548" y2="22.513508569990506" /><path d="M 143.74570117128098 25.957352633546492 a86.0,86.0 0 0,1 28.547481713284135,27.462654790039103" fill="none" id="id2" stroke="none" /><text fill="#e1ed5e" style="font-size:6.75px; font-family:Arial;" text-anchor="middle"><textPath startOffset="19.985693538727396" xlink:href="#id2">February</textPath></text><line stroke="#e1ed5e" stroke-width="0.3" x1="172.23445277983987" x2="176.4835382374775" y1="55.19839476539836" y2="52.563006222186495" /><path d="M 173.08426987136738 54.67131705675599 a86.0,86.0 0 0,1 12.851231095245387,41.99856678651699" fill="none" id="id3" stroke="none" /><text fill="#e1ed5e" style="font-size:6.75px; font-family:Arial;" text-anchor="middle"><textPath startOffset="22.20632615414155" xlink:href="#id3">March</textPath></text><path d="M 118.3937258080291 89.86733742301442 l 25.47127761748891 -14.031516191791878 a50.08039597577222,50.08039597577222 0 0,0 0.4094475417605846,0.7586441105777976 l -25.709033258467958 13.590991097881622" fill="#fff817" stroke="none" /><path d="M 118.89224826269711 90.83032412892265 l 25.037231218555444 -12.152248466726228 a48.830560358865526,48.830560358865526 0 0,0 0.3605132511313168,0.7593328492242817 l -25.242702663528515 11.719473201861405" fill="#ffe415" stroke="none" /><path d="M 119.34039704204932 91.81776055985345 l 26.215626769547377 -11.090906501846215 a49.465194430267005,49.465194430267005 0 0,0 0.3250059088254526,0.7870275874582782 l -26.40265436525903 10.638004343934634" fill="#ffee16" stroke="none" /><path d="M 119.47837535516314 92.15188598940014 l 28.291762079125025 -11.399152665927211 a51.50187671345703,51.50187671345703 0 0,0 0.32423239498649864,0.825136079522726 l -28.483788023993224 10.910467581508701" fill="#f0ff19" stroke="none" /><path d="M 119.61058180528143 92.48833698450437 l 35.21847716216314 -13.490131755797849 a58.71372148715361,58.71372148715361 0 0,0 0.353387856569988,0.9469037622191722 l -35.44546960723475 12.881904856549344" fill="#87ff25" stroke="none" /><path d="M 119.7369772167798 92.82701384747503 l 26.671035234679298 -9.693022609825638 a49.37778722529464,49.37778722529464 0 0,0 0.28344476792561957,0.8013365280086668 l -26.833933083414728 9.232488455390357" fill="#ffed16" stroke="none" /><path d="M 119.85752413597 93.16781622104841 l 28.458373292811373 -9.791393683077459 a51.09568741082364,51.09568741082364 0 0,0 0.2789890378627018,0.8341417128144787 l -28.622699624445843 9.300078867340666" fill="#f7ff19" stroke="none" /><path d="M 119.97218684219823 93.5106431181261 l 40.23818018650715 -13.074177283164856 a63.308926438204985,63.308926438204985 0 0,0 0.3278332656512773,1.0393210406330116 l -40.457268935926635 12.379606076105425" fill="#4aff2c" stroke="none" /><path d="M 120.08093135843002 93.85539295169968 l 29.42672711351867 -9.004347039622244 a51.77353626451547,51.77353626451547 0 0,0 0.25342924826979124,0.8544374387378048 l -29.577362258900163 8.49648021413791" fill="#ecff1a" stroke="none" /><path d="M 120.28053869075195 94.5502522615342 l 60.84161607225586 -16.349243215397394 a84.0,84.0 0 0,0 0.36321467251878925,1.3996142978045985 l -61.11402707664495 15.299532492043943" fill="#4dd2ff" stroke="none" /><path d="M 120.37134235888165 94.90015583598534 l 27.549114152180557 -6.896756559172782 a49.39927713175756,49.39927713175756 0 0,0 0.19940182817137275,0.8266493109261609 l -27.66374878061275 6.4215220165872156" fill="#ffed16" stroke="none" /><path d="M 120.45610955862082 95.25157060432595 l 32.67516971288378 -7.58481156588783 a54.5439425568281,54.5439425568281 0 0,0 0.20442449686956216,0.9163949358505578 l -32.80088859675538 7.021238460487308" fill="#c3ff1e" stroke="none" /><path d="M 120.53481517161879 95.60439243477599 l 44.38664238812695 -9.50124261872104 a66.39215387918125,66.39215387918125 0 0,0 0.22959261716314344,1.1195751394458502 l -44.54361430120509 8.735791823111779" fill="#31ff3f" stroke="none" /><path d="M 120.6074358757038 95.95851677861258 l 14.430682230726294 -2.8301124147820365 a35.70558145482534,35.70558145482534 0 0,0 0.11309194775453624,0.6041417070402669 l -14.47725990239069 2.581292630279207" fill="#ff0000" stroke="none" /><path d="M 120.67395015179393 96.31383870115 l 37.445276884195245 -6.676485599597209 a59.035828121597085,59.035828121597085 0 0,0 0.16976494113691984,1.0019622924324165 l -37.55465368685239 6.030937518848955" fill="#83ff25" stroke="none" /><path d="M 120.73433829027371 96.67025291283417 l 28.143874611034526 -4.519651565230418 a49.50447207707457,49.50447207707457 0 0,0 0.12787265993238267,0.8425210600432289 l -28.21750316440621 4.034531392795106" fill="#ffef16" stroke="none" /><path d="M 120.78858239683441 97.02765380044208 l 24.050850360517202 -3.4387844394866063 a45.29544487111207,45.29544487111207 0 0,0 0.10371362923134674,0.7727870040638394 l -24.106479988806388 3.0242790933581025" fill="#ffaa0f" stroke="none" /><line stroke="#e1ed5e" stroke-width="0.3" x1="184.98032266829074" x2="189.97916517819016" y1="98.17113171792111" y2="98.06355123074" /><path d="M 185.9800911702706 98.14961562048488 a86.0,86.0 0 0,1 -9.607161424134198,41.387399972396054" fill="none" id="id4" stroke="none" /><text fill="#e1ed5e" style="font-size:6.75px; font-family:Arial;" text-anchor="middle"><textPath startOffset="21.466115282336823" xlink:href="#id4">April</textPath></text><path d="M 120.99980553446 99.90962569577887 l 21.383061727977424 -0.09202367720083406 a42.383259742603755,42.383259742603755 0 0,0 -0.003139797717203166,0.7295784133229807 l -21.381477632970718 -0.2760642143258314" fill="#ff790b" stroke="none" /><line stroke="#e1ed5e" stroke-width="0.3" x1="174.80103733775053" x2="179.2010983576182" y1="140.37084112569926" y2="142.7455964860345" /><path d="M 175.68104954172406 140.8457921977663 a86.0,86.0 0 0,1 -30.038265399797805,32.042727171017184" fill="none" id="id5" stroke="none" /><text fill="#e1ed5e" style="font-size:6.75px; font-family:Arial;" text-anchor="middle"><textPath startOffset="22.206326154141568" xlink:href="#id5">May</textPath></text><path d="M 116.71984013943494 112.70617746262583 l 16.665416604463722 12.664818508968331 a41.931644428124656,41.931644428124656 0 0,0 -0.44166637573033996,0.5709133278580597 l -16.444943411515315 -12.949809830939643" fill="#ff710a" stroke="none" /><path d="M 116.498646956653 112.99209946851258 l 11.676011464064949 9.19444501935077 a35.86159691698171,35.86159691698171 0 0,0 -0.3860792718113542,0.48169325398650337 l -11.51601428019874 -9.394066106915524" fill="#ff0300" stroke="none" /><path d="M 115.56566222782051 114.09645910891815 l 15.894736308357658 14.394472727112044 a42.44396156039727,42.44396156039727 0 0,0 -0.4950857544338435,0.5373178058139044 l -15.64460414592809 -14.665941787727283" fill="#ff7a0b" stroke="none" /><line stroke="#e1ed5e" stroke-width="0.3" x1="143.8653032363475" x2="146.44561519142675" y1="172.8068346515853" y2="177.08958963109032" /><path d="M 144.38136562736335 173.6633856474863 a86.0,86.0 0 0,1 -40.68145358897372,12.25698825130547" fill="none" id="id6" stroke="none" /><text fill="#e1ed5e" style="font-size:6.75px; font-family:Arial;" text-anchor="middle"><textPath startOffset="21.466115282336833" xlink:href="#id6">June</textPath></text><line stroke="#e1ed5e" stroke-width="0.3" x1="102.19456741930631" x2="102.32365962044197" y1="184.97166512339345" y2="189.96999836594603" /><path d="M 102.22038585953345 185.97133177190398 a86.0,86.0 0 0,1 -42.740103519485714,-10.115201625700543" fill="none" id="id7" stroke="none" /><text fill="#e1ed5e" style="font-size:6.75px; font-family:Arial;" text-anchor="middle"><textPath startOffset="22.20632615414155" xlink:href="#id7">July</textPath></text><line stroke="#e1ed5e" stroke-width="0.3" x1="58.666819895761336" x2="56.23545636021788" y1="174.27360380694188" y2="178.64263932499728" /><path d="M 58.180547188652646 175.14741091055294 a86.0,86.0 0 0,1 -31.652253787137756,-30.449443065178592" fill="none" id="id8" stroke="none" /><text fill="#e1ed5e" style="font-size:6.75px; font-family:Arial;" text-anchor="middle"><textPath startOffset="22.20632615414155" xlink:href="#id8">August</textPath></text><line stroke="#e1ed5e" stroke-width="0.3" x1="26.63291911575756" x2="22.317208475507996" y1="142.92168965132927" y2="145.44649492493687" /><path d="M 25.769776987707644 143.4266507060508 a86.0,86.0 0 0,1 -11.730757126820373,-40.83630448921669" fill="none" id="id9" stroke="none" /><text fill="#e1ed5e" style="font-size:6.75px; font-family:Arial;" text-anchor="middle"><textPath startOffset="21.46611528233685" xlink:href="#id9">September</textPath></text><line stroke="#e1ed5e" stroke-width="0.3" x1="15.007084014347285" x2="10.007500721073583" y1="101.09737516637583" y2="101.16192664675087" /><path d="M 14.007167355692545 101.11028546245083 a86.0,86.0 0 0,1 10.666146001902534,-42.60595125391555" fill="none" id="id10" stroke="none" /><text fill="#e1ed5e" style="font-size:6.75px; font-family:Arial;" text-anchor="middle"><textPath startOffset="22.20632615414155" xlink:href="#id10">October</textPath></text><line stroke="#e1ed5e" stroke-width="0.3" x1="26.266209847984243" x2="21.928928074336255" y1="57.711370442889674" y2="55.22380399835377" /><path d="M 25.398753493254645 57.213857153982495 a86.0,86.0 0 0,1 29.58750427330803,-30.492523968695096" fill="none" id="id11" stroke="none" /><text fill="#e1ed5e" style="font-size:6.75px; font-family:Arial;" text-anchor="middle"><textPath startOffset="21.46611528233685" xlink:href="#id11">November</textPath></text><line stroke="#e1ed5e" stroke-width="0.3" x1="56.76296977257108" x2="54.21961505331056" y1="26.818313649435495" y2="22.513508569990535" /><path d="M 56.25429882871898 25.957352633546506 a86.0,86.0 0 0,1 42.26535254187918,-11.944610805530505" fill="none" id="id12" stroke="none" /><text fill="#e1ed5e" style="font-size:6.75px; font-family:Arial;" text-anchor="middle"><textPath startOffset="22.20632615414155" xlink:href="#id12">December</textPath></text></svg>