<?xml version="1.0" encoding="utf-8" ?>
<svg baseProfile="full" height="200mm" version="1.1" viewBox="0,0,200,200" width="200mm" xmlns="http://www.w3.org/2000/svg" xmlns:ev="http://www.w3.org/2001/xml-events" xmlns:xlink="http://www.w3.org/1999/xlink"><defs /><rect fill="#1a1a1a" height="200" width="200" x="0" y="0" /><text alignment-baseline="middle" fill="#e1ed5e" style="dominant-baseline: central; font-size:9.0px; font-family:Arial;" text-anchor="middle" x="100.0" y="100.0">2020</text><line stroke="#e1ed5e" stroke-width="0.3" x1="100.0" x2="100.0" y1="15.0" y2="10.0" /><path d="M 100.0 14.0 a86.0,86.0 0 0,1 42.35913384403234,11.155469271406648" fill="none" id="id13" stroke="none" /><text fill="#e1ed5e" style="font-size:6.75px; font-family:Arial;" text-anchor="middle"><textPath startOffset="22.145653131862478" xlink:href="#id13">January</textPath></text><path d="M 105.3480935250658 79.69241777938227 l 4.320106172051595 -16.404146801014747 a37.96347103652553,37.96347103652553 0 0,0 0.6287810148371751,0.17137706165884742 l -4.6010685878234625 16.32756924521176" fill="#ff9e0e" stroke="none" /><line stroke="#e1ed5e" stroke-width="0.3" x1="143.13028292997686" x2="145.6673583964461" y1="26.7553504044142" y2="22.446841604673864" /><path d="M 143.63769802327073 25.89364864446614 a86.0,86.0 0 0,1 29.32050498858742,28.57503671076993" fill="none" id="id14" stroke="none" /><text fill="#e1ed5e" style="font-size:6.75px; font-family:Arial;" text-anchor="middle"><textPath startOffset="20.669276256404974" xlink:href="#id14">February</textPath></text><path d="M 116.7966241395341 87.39550010848427 l 19.193627367997017 -14.403255801163755 a44.99685623608396,44.99685623608396 0 0,0 0.45832079399882353,0.6218001801165257 l -19.438050181579666 14.071649311778355" fill="#ffff18" stroke="none" /><path d="M 117.21940702142032 87.97951657250589 l 17.13568267376115 -11.96203733046749 a41.897893620921124,41.897893620921124 0 0,0 0.40662955836968806,0.5932846779329584 l -17.33850196894616 11.666117917464483" fill="#ffd513" stroke="none" /><path d="M 117.81537515405839 88.88188828441811 l 22.385978322575507 -13.970506133085351 a47.3876309484841,47.3876309484841 0 0,0 0.4247557253842541,0.6938065557831535 l -22.622502012415165 13.584162461177643" fill="#dfff1b" stroke="none" /><line stroke="#e1ed5e" stroke-width="0.3" x1="172.87174338648825" x2="177.1583165268699" y1="56.24261187166439" y2="53.66864786411523" /><path d="M 173.72905801456457 55.72781907015455 a86.0,86.0 0 0,1 12.242430191666344,42.057860355516425" fill="none" id="id15" stroke="none" /><text fill="#e1ed5e" style="font-size:6.75px; font-family:Arial;" text-anchor="middle"><textPath startOffset="22.145653131862474" xlink:href="#id15">March</textPath></text><path d="M 118.00360718960297 89.18935116829356 l 25.939624782549046 -15.57599937596458 a51.25683212795883,51.25683212795883 0 0,0 0.44648676817470634,0.7582321436916053 l -26.20318526085352 15.128416063979419" fill="#aeff20" stroke="none" /><path d="M 118.18653347947321 89.5 l 31.511839400330697 -18.193368960441187 a57.38673792088237,57.38673792088237 0 0,0 0.4852366640481562,0.857366690893955 l -31.819509429400227 17.649745499448116" fill="#65ff29" stroke="none" /><path d="M 118.53625476483649 90.13048839642627 l 33.28250824031674 -17.72106099323682 a58.70625090741283,58.70625090741283 0 0,0 0.4659932536665741,0.8936035074192606 l -33.581809562958256 17.14711124271306" fill="#56ff2a" stroke="none" /><path d="M 118.8641267826498 90.77261029715802 l 34.82931125291394 -17.0367614528443 a59.77282763938528,59.77282763938528 0 0,0 0.44294722814644855,0.9255893459307392 l -35.1166377390203 16.43635960484846" fill="#4bff2c" stroke="none" /><path d="M 119.16976305983485 91.42560881287824 l 24.186787273811994 -10.818442304062 a47.496025598473295,47.496025598473295 0 0,0 0.3265150873940092,0.7471304185749021 l -24.368936243222976 10.401649815711247" fill="#deff1b" stroke="none" /><path d="M 119.71291397450082 92.76114493625339 l 56.62401707834083 -20.7931233955279 a81.3210849589916,81.3210849589916 0 0,0 0.46995776392691746,1.3145555072740598 l -56.97261501231169 19.81803293187292" fill="#49edff" stroke="none" /><path d="M 120.16314734710363 94.1308016681162 l 40.723581196004716 -11.854040974325317 a63.41377550806545,63.41377550806545 0 0,0 0.29527117106774176,1.0478132198424708 l -40.921070859147044 11.153219830579834" fill="#31ff3e" stroke="none" /><path d="M 120.51834098615036 95.52812308129327 l 19.44077660810084 -4.237026777856025 a40.89714027297264,40.89714027297264 0 0,0 0.1436118449745706,0.6872346662764376 l -19.51064616389978 3.9026756602941832" fill="#ffc712" stroke="none" /><path d="M 120.65975698304385 96.23510406497455 l 60.51778401091695 -11.028356200242238 a82.5144440117231,82.5144440117231 0 0,0 0.24198414733279905,1.395700257030844 l -60.69818297574198 9.9878629102908" fill="#4be1ff" stroke="none" /><path d="M 120.77682067341334 96.94652285012252 l 23.962667167074482 -3.5216868737963964 a45.22006804691224,45.22006804691224 0 0,0 0.10627896761245427,0.7689816668352418 l -24.01959065124215 3.109816898761069" fill="#fcff18" stroke="none" /><path d="M 120.93736805541906 98.37931529534042 l 61.183577757728095 -4.735995870437745 a82.36660202521207,82.36660202521207 0 0,0 0.09702016506653297,1.4106519070681172 l -61.25586188395969 3.6850005392152934" fill="#4be2ff" stroke="none" /><path d="M 120.98066250479742 99.09900007780936 l 49.74733644328658 -2.1363646764893076 a70.79318765888061,70.79318765888061 0 0,0 0.04171846932235788,1.2145877154776827 l -49.776679599605785 1.2820706964475048" fill="#3bff9b" stroke="none" /><line stroke="#e1ed5e" stroke-width="0.3" x1="184.99686870605535" x2="189.99668451229388" y1="99.2704041080226" y2="99.22748670261217" /><path d="M 185.99683186730306 99.26182062694052 a86.0,86.0 0 0,1 -10.086455211305974,41.156179273409016" fill="none" id="id16" stroke="none" /><text fill="#e1ed5e" style="font-size:6.75px; font-family:Arial;" text-anchor="middle"><textPath startOffset="21.40746469413373" xlink:href="#id16">April</textPath></text><path d="M 120.96210409425399 101.26102812881392 l 24.701518247893897 1.4859819985123934 a45.74617437607151,45.74617437607151 0 0,0 -0.05388472123410303,0.7834720206731519 l -24.67236956549473 -1.9097974433398888" fill="#f5ff19" stroke="none" /><path d="M 120.86939407059847 102.33845913500097 l 23.926006326778346 2.6809589137889915 a45.07574130627055,45.07574130627055 0 0,0 -0.09276569045505317,0.7682329919466154 l -23.876458550063628 -3.0912855826590158" fill="#fdff18" stroke="none" /><path d="M 120.51834098615036 104.47187691870673 l 60.971114155389905 13.288370550199943 a83.40238419506909,83.40238419506909 0 0,0 -0.3168859228076789,1.396257845267308 l -60.734017371024564 -14.333062729406269" fill="#4cd8ff" stroke="none" /><path d="M 120.43855184770803 104.8234425847677 l 29.470233994821516 6.954894979491 a51.279782956376735,51.279782956376735 0 0,0 -0.20954500072353247,0.8550151103588648 l -29.34650146758169 -7.459765914457964" fill="#aeff20" stroke="none" /><path d="M 120.26092885502905 105.52220625578681 l 60.34006353686236 16.445952637315887 a83.54112747449813,83.54112747449813 0 0,0 -0.38898940086886596,1.3803861553266439 l -60.04885564391892 -17.47934671654554" fill="#4cd7ff" stroke="none" /><path d="M 119.83427380445688 106.89939002012753 l 59.50282141337066 20.698170060382587 a84.0,84.0 0 0,0 -0.48543931982422706,1.3578601744763141 l -59.13874192350249 -21.716565191239823" fill="#4dd2ff" stroke="none" /><path d="M 119.71291397450082 107.23885506374661 l 24.128335103936468 8.86025886243073 a46.70371066591622,46.70371066591622 0 0,0 -0.28282280708156105,0.750221097154663 l -23.972681613040468 -9.273148239779552" fill="#e8ff1a" stroke="none" /><path d="M 119.4528033332814 107.91128576633889 l 28.074332761795905 11.417586728893937 a51.30725072869299,51.30725072869299 0 0,0 -0.33880903161696607,0.8130183367835399 l -27.874197885642452 -11.897837575118754" fill="#adff20" stroke="none" /><path d="M 119.0197475246899 108.90220220490707 l 10.871661735180963 5.088486634446519 a33.00357134827543,33.00357134827543 0 0,0 -0.24457334586626717,0.5110642280791202 l -10.782709131354784 -5.274363364590743" fill="#ff5407" stroke="none" /><path d="M 118.70294669586154 109.54985784667822 l 8.017934110241653 4.094014286731786 a30.00267851120657,30.00267851120657 0 0,0 -0.238152591283658,0.45668899538261815 l -7.946473449983045 -4.231049525218907" fill="#ff2603" stroke="none" /><path d="M 118.5362547648365 109.86951160357373 l 10.595297933310727 5.641399366958543 a33.00357134827543,33.00357134827543 0 0,0 -0.2705580136622654,0.4977962715543958 l -10.496894570033122 -5.822450471987542" fill="#ff5407" stroke="none" /><line stroke="#e1ed5e" stroke-width="0.3" x1="174.33088141563837" x2="178.70328620479359" y1="141.23008692659167" y2="143.65538615756765" /><path d="M 175.20536237346943 141.71514677278685 a86.0,86.0 0 0,1 -30.301960400862466,31.631185727798858" fill="none" id="id17" stroke="none" /><text fill="#e1ed5e" style="font-size:6.75px; font-family:Arial;" text-anchor="middle"><textPath startOffset="22.145653131862474" xlink:href="#id17">May</textPath></text><path d="M 113.59037401385872 116.0094264158162 l 7.909927266920425 9.317874431203053 a33.22250928752516,33.22250928752516 0 0,0 -0.4379449168729419,0.36534922570612716 l -7.748808015885588 -9.452285840821052" fill="#ff5708" stroke="none" /><path d="M 113.03279911837588 116.46651593811092 l 7.622116440360504 9.63029512749632 a33.281662887129464,33.281662887129464 0 0,0 -0.45103001350856015,0.35072366653490605 l -7.455676482216713 -9.759719845652018" fill="#ff5808" stroke="none" /><path d="M 112.7482090630111 116.68781488649013 l 7.66770148715277 10.037267383207412 a33.6309296022931,33.6309296022931 0 0,0 -0.46177990623684023,0.34652825054093417 l -7.494268592005163 -10.16741466101236" fill="#ff5e08" stroke="none" /><path d="M 112.45986205192187 116.90419585922612 l 7.201032832948594 9.769584036293967 a33.136706559170555,33.136706559170555 0 0,0 -0.4607879794734903,0.33357496218311206 l -7.032263843101136 -9.891759769850156" fill="#ff5608" stroke="none" /><path d="M 112.16784306229584 117.11559508785304 l 7.006769841603067 9.855899264041845 a33.092707468393456,33.092707468393456 0 0,0 -0.46582698923847293,0.3251834164355974 l -6.836547761190835 -9.974727496282565" fill="#ff5507" stroke="none" /><path d="M 111.8722381534696 117.32195027204791 l 6.970031771914016 10.169484657145677 a33.328818316992596,33.328818316992596 0 0,0 -0.4747034891406225,0.3194016928374167 l -6.79443199467639 -10.287636024040214" fill="#ff5908" stroke="none" /><path d="M 111.5731344415666 117.5232005979908 l 3.655523041315178 5.534927799116816 a27.633119510985935,27.633119510985935 0 0,0 -0.3980674132205905,0.2580224879355421 l -3.559969995837578 -5.596864128756253" fill="#ff0000" stroke="none" /><path d="M 110.96478420261333 117.91015095944535 l 4.775053528479893 7.799691079567616 a30.14528934132403,30.14528934132403 0 0,0 -0.44366292759530984,0.2664068405496855 l -4.6404578443271465 -7.880511920653224" fill="#ff2803" stroke="none" /><line stroke="#e1ed5e" stroke-width="0.3" x1="143.1302829299769" x2="145.66735839644613" y1="173.24464959558577" y2="177.55315839532614" /><path d="M 143.63769802327073 174.10635135553383 a86.0,86.0 0 0,1 -40.68552437913181,11.842963189579606" fill="none" id="id18" stroke="none" /><text fill="#e1ed5e" style="font-size:6.75px; font-family:Arial;" text-anchor="middle"><textPath startOffset="21.407464694133747" xlink:href="#id18">June</textPath></text><path d="M 110.65571695917076 118.09573695890943 l 6.174538942226275 10.485717007048269 a33.16861505270711,33.16861505270711 0 0,0 -0.49311864048067255,0.2847021798239397 l -5.993627833885204 -10.59016608414838" fill="#ff5708" stroke="none" /><path d="M 110.34350942703117 118.27599006163325 l 6.016021397249671 10.629733364903595 a33.21407977954584,33.21407977954584 0 0,0 -0.49861579454995103,0.2765737760771502 l -5.832661414543625 -10.73144005641389" fill="#ff5708" stroke="none" /><path d="M 110.02825361518725 118.45085714620011 l 5.849076246041185 10.761641497528396 a33.24845380663733,33.24845380663733 0 0,0 -0.5038109456702919,0.26825095130506427 l -5.66347648458434 -10.86046291655603" fill="#ff5808" stroke="none" /><path d="M 109.71004243097381 118.62028667847754 l 5.6659169281926465 10.865142788959508 a33.253731776959164,33.253731776959164 0 0,0 -0.508422288096172,0.25960404295413236 l -5.478567418382892 -10.960804783586477" fill="#ff5808" stroke="none" /><path d="M 109.06512990194946 118.94263497670748 l 4.238378622812706 8.856581208809342 a30.81849703664214,30.81849703664214 0 0,0 -0.4791708144752952,0.22427613592723789 l -4.0857190944659045 -8.928033576307113" fill="#ff3204" stroke="none" /><path d="M 108.4095320186766 119.2426549942271 l 4.900935354085603 11.21429919741486 a33.23845063045424,33.23845063045424 0 0,0 -0.5247954468922807,0.22400397001207825 l -4.707704832022891 -11.296777817086342" fill="#ff5808" stroke="none" /><line stroke="#e1ed5e" stroke-width="0.3" x1="101.45913802915013" x2="101.54496967792366" y1="184.9874750549273" y2="189.98673829345242" /><path d="M 101.47630435890484 185.9873277026323 a86.0,86.0 0 0,1 -42.54439059252881,-10.42667462771756" fill="none" id="id19" stroke="none" /><text fill="#e1ed5e" style="font-size:6.75px; font-family:Arial;" text-anchor="middle"><textPath startOffset="22.145653131862474" xlink:href="#id19">July</textPath></text><line stroke="#e1ed5e" stroke-width="0.3" x1="58.13341422392154" x2="55.67067388415222" y1="173.97424548756322" y2="178.32567169271397" /><path d="M 57.64086615596768 174.84453072859336 a86.0,86.0 0 0,1 -31.369924170532247,-30.572349798747897" fill="none" id="id20" stroke="none" /><text fill="#e1ed5e" style="font-size:6.75px; font-family:Arial;" text-anchor="middle"><textPath startOffset="22.145653131862474" xlink:href="#id20">August</textPath></text><line stroke="#e1ed5e" stroke-width="0.3" x1="26.387840678322732" x2="22.057713659400534" y1="142.50000000000003" y2="145.00000000000006" /><path d="M 25.521815274538284 143.00000000000003 a86.0,86.0 0 0,1 -11.493303480769212,-40.785679425670985" fill="none" id="id21" stroke="none" /><text fill="#e1ed5e" style="font-size:6.75px; font-family:Arial;" text-anchor="middle"><textPath startOffset="21.40746469413373" xlink:href="#id21">September</textPath></text><path d="M 80.05021161711548 106.5578916946017 l -17.81619536348747 5.856537290583648 a39.75408878794033,39.75408878794033 0 0,0 -0.2075452772991469,-0.6501326251028838 l 17.914105356563873 -5.549835631789373" fill="#ffb711" stroke="none" /><line stroke="#e1ed5e" stroke-width="0.3" x1="15.003131293944662" x2="10.003315487706104" y1="100.72959589197737" y2="100.7725132973878" /><path d="M 14.003168132696942 100.73817937305945 a86.0,86.0 0 0,1 10.791469493833604,-42.45332614584628" fill="none" id="id22" stroke="none" /><text fill="#e1ed5e" style="font-size:6.75px; font-family:Arial;" text-anchor="middle"><textPath startOffset="22.145653131862435" xlink:href="#id22">October</textPath></text><path d="M 79.2786578344484 96.59031103205396 l -13.365231111451331 -2.199243693322394 a34.544964949571664,34.544964949571664 0 0,0 0.10130752243541616,-0.5843148679810373 l 13.32550877152368 2.4283515942240244" fill="#ff6b09" stroke="none" /><line stroke="#e1ed5e" stroke-width="0.3" x1="26.387840678322718" x2="22.05771365940052" y1="57.49999999999999" y2="54.99999999999999" /><path d="M 25.521815274538284 56.99999999999999 a86.0,86.0 0 0,1 29.574782752854787,-30.34633250058573" fill="none" id="id23" stroke="none" /><text fill="#e1ed5e" style="font-size:6.75px; font-family:Arial;" text-anchor="middle"><textPath startOffset="21.40746469413373" xlink:href="#id23">November</textPath></text><line stroke="#e1ed5e" stroke-width="0.3" x1="56.869717070023135" x2="54.33264160355391" y1="26.7553504044142" y2="22.446841604673864" /><path d="M 56.362301976729285 25.89364864446614 a86.0,86.0 0 0,1 42.16139366436587,-11.88097634709845" fill="none" id="id24" stroke="none" /><text fill="#e1ed5e" style="font-size:6.75px; font-family:Arial;" text-anchor="middle"><textPath startOffset="22.145653131862474" xlink:href="#id24">December</textPath></text></svg>